<mxfile host="app.diagrams.net" modified="2024-03-20T17:21:33.276Z" agent="Mozilla/5.0 (Windows NT 10.0; Win64; x64) AppleWebKit/537.36 (KHTML, like Gecko) Chrome/122.0.0.0 Safari/537.36" etag="rxV7L_JvchHeqx-nX648" version="24.0.6" type="github">
  <diagram name="Страница — 1" id="hY87scyZslR1d9eWhfrw">
    <mxGraphModel dx="988" dy="543" grid="1" gridSize="10" guides="1" tooltips="1" connect="1" arrows="1" fold="1" page="1" pageScale="1" pageWidth="827" pageHeight="1169" math="0" shadow="0">
      <root>
        <mxCell id="0" />
        <mxCell id="1" parent="0" />
        <mxCell id="UCRyetdWfhHOHcdlKuk4-5" style="edgeStyle=elbowEdgeStyle;rounded=0;orthogonalLoop=1;jettySize=auto;html=1;elbow=vertical;curved=0;" parent="1" source="UCRyetdWfhHOHcdlKuk4-1" target="UCRyetdWfhHOHcdlKuk4-6" edge="1">
          <mxGeometry relative="1" as="geometry" />
        </mxCell>
        <mxCell id="UCRyetdWfhHOHcdlKuk4-7" value="выбрать пиццу" style="edgeLabel;html=1;align=center;verticalAlign=middle;resizable=0;points=[];" parent="UCRyetdWfhHOHcdlKuk4-5" vertex="1" connectable="0">
          <mxGeometry x="-0.2426" y="1" relative="1" as="geometry">
            <mxPoint x="14" y="-9" as="offset" />
          </mxGeometry>
        </mxCell>
        <mxCell id="UCRyetdWfhHOHcdlKuk4-1" value="Пользователь" style="shape=umlLifeline;perimeter=lifelinePerimeter;whiteSpace=wrap;html=1;container=1;dropTarget=0;collapsible=0;recursiveResize=0;outlineConnect=0;portConstraint=eastwest;newEdgeStyle={&quot;edgeStyle&quot;:&quot;elbowEdgeStyle&quot;,&quot;elbow&quot;:&quot;vertical&quot;,&quot;curved&quot;:0,&quot;rounded&quot;:0};" parent="1" vertex="1">
          <mxGeometry x="210" y="150" width="100" height="650" as="geometry" />
        </mxCell>
        <mxCell id="UCRyetdWfhHOHcdlKuk4-3" value="Приложение" style="shape=umlLifeline;perimeter=lifelinePerimeter;whiteSpace=wrap;html=1;container=1;dropTarget=0;collapsible=0;recursiveResize=0;outlineConnect=0;portConstraint=eastwest;newEdgeStyle={&quot;edgeStyle&quot;:&quot;elbowEdgeStyle&quot;,&quot;elbow&quot;:&quot;vertical&quot;,&quot;curved&quot;:0,&quot;rounded&quot;:0};" parent="1" vertex="1">
          <mxGeometry x="380" y="190" width="100" height="610" as="geometry" />
        </mxCell>
        <mxCell id="UCRyetdWfhHOHcdlKuk4-6" value="" style="html=1;points=[[0,0,0,0,5],[0,1,0,0,-5],[1,0,0,0,5],[1,1,0,0,-5]];perimeter=orthogonalPerimeter;outlineConnect=0;targetShapes=umlLifeline;portConstraint=eastwest;newEdgeStyle={&quot;curved&quot;:0,&quot;rounded&quot;:0};" parent="UCRyetdWfhHOHcdlKuk4-3" vertex="1">
          <mxGeometry x="45" y="130" width="10" height="40" as="geometry" />
        </mxCell>
        <mxCell id="UCRyetdWfhHOHcdlKuk4-8" style="edgeStyle=orthogonalEdgeStyle;rounded=0;orthogonalLoop=1;jettySize=auto;html=1;curved=0;" parent="UCRyetdWfhHOHcdlKuk4-3" source="UCRyetdWfhHOHcdlKuk4-6" target="UCRyetdWfhHOHcdlKuk4-6" edge="1">
          <mxGeometry relative="1" as="geometry" />
        </mxCell>
        <mxCell id="UCRyetdWfhHOHcdlKuk4-14" value="" style="html=1;points=[[0,0,0,0,5],[0,1,0,0,-5],[1,0,0,0,5],[1,1,0,0,-5]];perimeter=orthogonalPerimeter;outlineConnect=0;targetShapes=umlLifeline;portConstraint=eastwest;newEdgeStyle={&quot;curved&quot;:0,&quot;rounded&quot;:0};" parent="UCRyetdWfhHOHcdlKuk4-3" vertex="1">
          <mxGeometry x="45" y="190" width="10" height="40" as="geometry" />
        </mxCell>
        <mxCell id="r4ULVXh8f3Sc4uGh58wk-1" value="" style="html=1;points=[[0,0,0,0,5],[0,1,0,0,-5],[1,0,0,0,5],[1,1,0,0,-5]];perimeter=orthogonalPerimeter;outlineConnect=0;targetShapes=umlLifeline;portConstraint=eastwest;newEdgeStyle={&quot;curved&quot;:0,&quot;rounded&quot;:0};" vertex="1" parent="UCRyetdWfhHOHcdlKuk4-3">
          <mxGeometry x="45" y="340" width="10" height="80" as="geometry" />
        </mxCell>
        <mxCell id="UCRyetdWfhHOHcdlKuk4-4" value="Курьер" style="shape=umlLifeline;perimeter=lifelinePerimeter;whiteSpace=wrap;html=1;container=1;dropTarget=0;collapsible=0;recursiveResize=0;outlineConnect=0;portConstraint=eastwest;newEdgeStyle={&quot;edgeStyle&quot;:&quot;elbowEdgeStyle&quot;,&quot;elbow&quot;:&quot;vertical&quot;,&quot;curved&quot;:0,&quot;rounded&quot;:0};" parent="1" vertex="1">
          <mxGeometry x="720" y="230" width="100" height="570" as="geometry" />
        </mxCell>
        <mxCell id="UCRyetdWfhHOHcdlKuk4-9" value="добавить пиццу&lt;div&gt;&amp;nbsp;в корзину&lt;/div&gt;" style="text;html=1;align=center;verticalAlign=middle;resizable=0;points=[];autosize=1;strokeColor=none;fillColor=none;" parent="1" vertex="1">
          <mxGeometry x="450" y="320" width="110" height="40" as="geometry" />
        </mxCell>
        <mxCell id="UCRyetdWfhHOHcdlKuk4-10" value="Заказ" style="shape=umlLifeline;perimeter=lifelinePerimeter;whiteSpace=wrap;html=1;container=1;dropTarget=0;collapsible=0;recursiveResize=0;outlineConnect=0;portConstraint=eastwest;newEdgeStyle={&quot;edgeStyle&quot;:&quot;elbowEdgeStyle&quot;,&quot;elbow&quot;:&quot;vertical&quot;,&quot;curved&quot;:0,&quot;rounded&quot;:0};" parent="1" vertex="1">
          <mxGeometry x="580" y="380" width="100" height="420" as="geometry" />
        </mxCell>
        <mxCell id="r4ULVXh8f3Sc4uGh58wk-17" value="" style="html=1;points=[[0,0,0,0,5],[0,1,0,0,-5],[1,0,0,0,5],[1,1,0,0,-5]];perimeter=orthogonalPerimeter;outlineConnect=0;targetShapes=umlLifeline;portConstraint=eastwest;newEdgeStyle={&quot;curved&quot;:0,&quot;rounded&quot;:0};" vertex="1" parent="UCRyetdWfhHOHcdlKuk4-10">
          <mxGeometry x="45" y="60" width="10" height="45" as="geometry" />
        </mxCell>
        <mxCell id="UCRyetdWfhHOHcdlKuk4-12" style="edgeStyle=elbowEdgeStyle;rounded=0;orthogonalLoop=1;jettySize=auto;html=1;elbow=vertical;curved=0;" parent="1" target="UCRyetdWfhHOHcdlKuk4-14" edge="1" source="UCRyetdWfhHOHcdlKuk4-1">
          <mxGeometry relative="1" as="geometry">
            <mxPoint x="250.02380952380963" y="410" as="sourcePoint" />
            <mxPoint x="430" y="390" as="targetPoint" />
            <Array as="points">
              <mxPoint x="400" y="400" />
              <mxPoint x="390" y="410" />
            </Array>
          </mxGeometry>
        </mxCell>
        <mxCell id="UCRyetdWfhHOHcdlKuk4-13" value="оформить заказ" style="edgeLabel;html=1;align=center;verticalAlign=middle;resizable=0;points=[];" parent="UCRyetdWfhHOHcdlKuk4-12" vertex="1" connectable="0">
          <mxGeometry x="-0.2426" y="1" relative="1" as="geometry">
            <mxPoint x="14" y="-9" as="offset" />
          </mxGeometry>
        </mxCell>
        <mxCell id="r4ULVXh8f3Sc4uGh58wk-2" style="edgeStyle=elbowEdgeStyle;rounded=0;orthogonalLoop=1;jettySize=auto;html=1;elbow=vertical;curved=0;entryX=0;entryY=0;entryDx=0;entryDy=5;entryPerimeter=0;" edge="1" parent="1" source="UCRyetdWfhHOHcdlKuk4-1" target="r4ULVXh8f3Sc4uGh58wk-1">
          <mxGeometry relative="1" as="geometry">
            <mxPoint x="190.00380952380965" y="490" as="sourcePoint" />
            <mxPoint x="354.98" y="495" as="targetPoint" />
            <Array as="points">
              <mxPoint x="310" y="535" />
              <mxPoint x="229.96000000000004" y="510" />
              <mxPoint x="219.96000000000004" y="520" />
            </Array>
          </mxGeometry>
        </mxCell>
        <mxCell id="r4ULVXh8f3Sc4uGh58wk-3" value="посмотреть историю&lt;div&gt;&amp;nbsp;заказов&lt;/div&gt;" style="edgeLabel;html=1;align=center;verticalAlign=middle;resizable=0;points=[];" vertex="1" connectable="0" parent="r4ULVXh8f3Sc4uGh58wk-2">
          <mxGeometry x="-0.2426" y="1" relative="1" as="geometry">
            <mxPoint x="18" y="-14" as="offset" />
          </mxGeometry>
        </mxCell>
        <mxCell id="r4ULVXh8f3Sc4uGh58wk-5" value="&amp;lt;&amp;lt;create&amp;gt;&amp;gt;" style="html=1;verticalAlign=bottom;labelBackgroundColor=none;endArrow=open;endFill=0;dashed=1;rounded=0;exitX=1;exitY=1;exitDx=0;exitDy=-5;exitPerimeter=0;" edge="1" parent="1" source="UCRyetdWfhHOHcdlKuk4-14">
          <mxGeometry x="0.001" width="160" relative="1" as="geometry">
            <mxPoint x="445" y="415" as="sourcePoint" />
            <mxPoint x="580" y="415" as="targetPoint" />
            <mxPoint as="offset" />
          </mxGeometry>
        </mxCell>
        <mxCell id="r4ULVXh8f3Sc4uGh58wk-6" value="вернуть историю заказов" style="html=1;verticalAlign=bottom;labelBackgroundColor=none;endArrow=open;endFill=0;dashed=1;rounded=0;exitX=0;exitY=1;exitDx=0;exitDy=-5;exitPerimeter=0;" edge="1" parent="1" source="r4ULVXh8f3Sc4uGh58wk-1" target="UCRyetdWfhHOHcdlKuk4-1">
          <mxGeometry x="0.001" width="160" relative="1" as="geometry">
            <mxPoint x="280" y="550" as="sourcePoint" />
            <mxPoint x="425" y="550" as="targetPoint" />
            <mxPoint as="offset" />
          </mxGeometry>
        </mxCell>
        <mxCell id="r4ULVXh8f3Sc4uGh58wk-7" style="edgeStyle=elbowEdgeStyle;rounded=0;orthogonalLoop=1;jettySize=auto;html=1;elbow=vertical;curved=0;" edge="1" parent="1">
          <mxGeometry relative="1" as="geometry">
            <mxPoint x="430.02380952380963" y="626" as="sourcePoint" />
            <mxPoint x="629.5" y="626" as="targetPoint" />
            <Array as="points">
              <mxPoint x="500" y="626" />
              <mxPoint x="352" y="650" />
              <mxPoint x="412" y="670" />
              <mxPoint x="402" y="680" />
            </Array>
          </mxGeometry>
        </mxCell>
        <mxCell id="r4ULVXh8f3Sc4uGh58wk-8" value="посмотреть статус&lt;div&gt;&amp;nbsp;заказа&lt;/div&gt;" style="edgeLabel;html=1;align=center;verticalAlign=middle;resizable=0;points=[];" vertex="1" connectable="0" parent="r4ULVXh8f3Sc4uGh58wk-7">
          <mxGeometry x="-0.2426" y="1" relative="1" as="geometry">
            <mxPoint x="18" y="-14" as="offset" />
          </mxGeometry>
        </mxCell>
        <mxCell id="r4ULVXh8f3Sc4uGh58wk-9" value="заказ создан и передан курьеру" style="html=1;verticalAlign=bottom;labelBackgroundColor=default;endArrow=open;endFill=0;dashed=1;rounded=0;" edge="1" parent="1">
          <mxGeometry x="-0.0597" y="-5" width="160" relative="1" as="geometry">
            <mxPoint x="769.5" y="495" as="sourcePoint" />
            <mxPoint x="260.0999999999999" y="495" as="targetPoint" />
            <mxPoint as="offset" />
          </mxGeometry>
        </mxCell>
        <mxCell id="r4ULVXh8f3Sc4uGh58wk-11" value="возвращение статуса заказа" style="html=1;verticalAlign=bottom;labelBackgroundColor=default;endArrow=open;endFill=0;dashed=1;rounded=0;" edge="1" parent="1">
          <mxGeometry x="0.0801" y="1" width="160" relative="1" as="geometry">
            <mxPoint x="629.5" y="649" as="sourcePoint" />
            <mxPoint x="260.0999999999999" y="649" as="targetPoint" />
            <mxPoint as="offset" />
          </mxGeometry>
        </mxCell>
        <mxCell id="r4ULVXh8f3Sc4uGh58wk-18" style="edgeStyle=elbowEdgeStyle;rounded=0;orthogonalLoop=1;jettySize=auto;html=1;elbow=vertical;curved=0;exitX=1;exitY=0;exitDx=0;exitDy=5;exitPerimeter=0;" edge="1" parent="1" source="r4ULVXh8f3Sc4uGh58wk-17" target="UCRyetdWfhHOHcdlKuk4-4">
          <mxGeometry relative="1" as="geometry">
            <mxPoint x="672.5138095238096" y="470" as="sourcePoint" />
            <mxPoint x="867.49" y="470" as="targetPoint" />
            <Array as="points">
              <mxPoint x="772.49" y="470" />
              <mxPoint x="698.49" y="497.76" />
            </Array>
          </mxGeometry>
        </mxCell>
        <mxCell id="r4ULVXh8f3Sc4uGh58wk-19" value="передать заказ курьеру" style="edgeLabel;html=1;align=center;verticalAlign=middle;resizable=0;points=[];" vertex="1" connectable="0" parent="r4ULVXh8f3Sc4uGh58wk-18">
          <mxGeometry x="-0.2426" y="1" relative="1" as="geometry">
            <mxPoint x="30" y="-9" as="offset" />
          </mxGeometry>
        </mxCell>
      </root>
    </mxGraphModel>
  </diagram>
</mxfile>
